<?xml version="1.0" standalone="no"?>
<!DOCTYPE svg PUBLIC "-//W3C//DTD SVG 20010904//EN"
 "http://www.w3.org/TR/2001/REC-SVG-20010904/DTD/svg10.dtd">
<svg version="1.0" xmlns="http://www.w3.org/2000/svg"
 width="512.000000pt" height="512.000000pt" viewBox="0 0 512.000000 512.000000"
 preserveAspectRatio="xMidYMid meet">
<metadata>
Created by potrace 1.14, written by Peter Selinger 2001-2017
</metadata>
<g transform="translate(0.000000,512.000000) scale(0.100000,-0.100000)"
fill="#000000" stroke="none">
<path d="M1932 4948 c-109 -215 -259 -499 -270 -510 -7 -7 -24 -7 -59 1 -26 6
-109 22 -183 36 -74 14 -146 27 -160 30 -37 8 -293 55 -295 55 -1 0 -3 -33 -4
-72 -1 -40 -4 -122 -6 -183 -2 -60 -6 -186 -10 -279 -3 -93 -7 -171 -8 -172
-2 -2 -70 -21 -152 -43 -83 -22 -195 -52 -250 -66 -55 -15 -104 -28 -110 -29
-36 -9 -77 -20 -122 -33 -51 -14 -51 -14 -38 -41 7 -15 46 -101 85 -192 40
-91 84 -190 97 -220 14 -30 40 -90 59 -132 l33 -77 -232 -197 c-128 -109 -248
-213 -267 -232 l-35 -33 41 -37 c23 -20 143 -124 267 -230 l226 -192 -33 -78
c-44 -100 -72 -162 -107 -240 -16 -35 -29 -65 -29 -67 0 -2 -18 -43 -40 -90
-22 -47 -40 -89 -40 -93 0 -4 -9 -24 -19 -44 -18 -33 -19 -36 -3 -41 28 -9
295 -80 397 -107 192 -49 268 -70 272 -73 2 -2 6 -84 9 -183 3 -98 7 -217 9
-264 1 -47 4 -124 5 -172 3 -95 1 -93 65 -78 22 5 54 11 70 14 34 6 439 83
470 90 88 17 102 17 108 -1 3 -10 49 -99 101 -198 53 -99 122 -231 153 -292
32 -62 61 -113 66 -113 5 0 222 158 332 243 101 77 227 167 234 167 9 0 264
-182 281 -200 3 -3 67 -52 144 -109 114 -85 140 -101 151 -89 7 7 45 76 85
153 40 77 96 185 125 240 30 55 67 125 82 155 34 65 31 64 198 31 61 -12 121
-23 135 -26 14 -3 36 -7 50 -10 14 -2 36 -7 50 -9 14 -3 50 -10 80 -15 30 -6
66 -13 80 -16 14 -3 36 -7 50 -10 80 -16 89 -15 88 2 -1 19 11 384 17 533 2
47 4 101 4 121 l1 35 118 32 c64 17 216 58 337 90 205 54 220 59 218 80 -2 18
-95 236 -185 432 -11 25 -36 80 -54 122 l-33 77 197 167 c108 93 211 180 227
195 17 15 49 43 72 64 l43 37 -68 56 c-37 32 -81 69 -97 83 -17 15 -107 93
-202 173 l-172 147 33 77 c48 111 116 263 182 410 13 29 24 55 24 57 0 3 11
28 24 55 l24 50 -36 10 c-85 22 -532 141 -589 156 l-63 16 -1 42 c0 22 -2 70
-4 106 -1 36 -6 164 -10 285 -9 298 -5 271 -40 267 -26 -3 -196 -34 -558 -104
-59 -12 -109 -19 -110 -17 -2 2 -29 54 -60 114 -219 423 -263 505 -269 505 -5
0 -131 -92 -282 -205 -151 -113 -280 -205 -286 -205 -8 0 -106 69 -175 123
-75 59 -387 287 -393 287 -4 0 -31 -46 -60 -102z"/>
</g>
</svg>
